<?xml version="1.0" standalone="no"?>
<!DOCTYPE svg PUBLIC "-//W3C//DTD SVG 20010904//EN"
 "http://www.w3.org/TR/2001/REC-SVG-20010904/DTD/svg10.dtd">
<svg version="1.0" xmlns="http://www.w3.org/2000/svg"
 width="500.000000pt" height="500.000000pt" viewBox="0 0 500.000000 500.000000"
 preserveAspectRatio="xMidYMid meet">
<metadata>
Created by potrace 1.14, written by Peter Selinger 2001-2017
</metadata>
<g transform="translate(0.000000,500.000000) scale(0.100000,-0.100000)"
fill="#000000" stroke="none">
<path d="M2200 4789 c-344 -48 -699 -181 -980 -368 -487 -323 -835 -811 -976
-1367 -270 -1070 234 -2172 1222 -2667 215 -108 452 -181 703 -218 127 -19
175 -21 385 -16 322 7 478 35 760 138 310 113 640 328 867 566 356 373 584
860 638 1365 24 216 9 523 -34 733 -102 490 -390 974 -767 1291 -359 301 -738
471 -1198 539 -107 16 -513 18 -620 4z m560 -34 c309 -35 551 -111 832 -261
638 -342 1072 -962 1184 -1695 25 -157 25 -490 0 -648 -60 -392 -202 -735
-436 -1053 -84 -114 -298 -336 -406 -421 -355 -278 -760 -441 -1209 -487 -160
-17 -443 -8 -600 19 -595 101 -1106 414 -1466 897 -217 291 -354 612 -420 980
-27 150 -37 482 -20 635 38 337 143 648 310 927 333 555 890 951 1513 1076
228 46 489 58 718 31z"/>
<path d="M2280 4637 c0 -7 7 -67 15 -132 19 -151 19 -142 -10 -161 -30 -20
-63 -10 -76 23 -6 15 -15 23 -26 21 -29 -5 -26 -36 5 -68 34 -34 75 -39 121
-15 45 23 51 56 35 186 -7 63 -13 124 -14 137 0 17 -6 22 -25 22 -14 0 -25 -6
-25 -13z"/>
<path d="M2748 4598 c-41 -70 -148 -274 -148 -281 0 -4 10 -7 23 -7 15 0 29
12 44 38 l22 39 53 -8 c29 -4 60 -8 69 -8 12 -1 19 -14 23 -45 5 -33 13 -47
27 -51 11 -4 23 -4 26 -1 4 4 -64 347 -70 352 -1 1 -12 4 -23 8 -18 5 -26 -1
-46 -36z m62 -170 c0 -15 -7 -17 -47 -11 -27 3 -49 7 -51 8 -4 4 34 80 57 114
15 24 16 24 28 -35 7 -32 12 -67 13 -76z"/>
<path d="M1865 4558 c-4 -14 -25 -289 -25 -333 0 -22 4 -26 23 -23 19 3 22 10
25 50 l3 48 66 20 67 21 23 -28 c12 -16 22 -31 23 -35 0 -12 50 -9 50 2 0 6
-46 73 -102 150 -80 109 -108 140 -126 140 -12 0 -24 -6 -27 -12z m89 -120
c51 -68 51 -67 -21 -82 l-33 -8 0 76 c0 42 2 76 4 76 2 0 25 -28 50 -62z"/>
<path d="M3061 4534 c-24 -20 -31 -34 -31 -62 0 -33 8 -44 66 -99 56 -52 65
-65 59 -85 -10 -30 -23 -38 -62 -38 -42 0 -73 30 -73 70 0 17 -4 30 -9 30 -5
0 -16 3 -25 6 -13 5 -16 -1 -16 -34 0 -50 26 -84 82 -107 51 -20 96 -14 126
18 50 54 34 112 -48 172 -40 29 -50 42 -50 65 0 29 22 50 53 50 24 0 60 -35
62 -60 2 -31 41 -47 50 -20 10 30 -23 87 -60 104 -48 23 -89 20 -124 -10z"/>
<path d="M3386 4452 c-19 -63 -86 -314 -86 -322 0 -5 10 -14 21 -21 19 -10 28
-5 78 43 31 29 77 73 102 96 l47 44 -36 -137 c-37 -143 -37 -154 8 -155 8 0
71 56 139 124 121 122 124 125 97 132 -25 6 -35 -2 -118 -90 -50 -53 -93 -95
-95 -92 -4 3 42 193 62 257 3 10 -3 20 -17 26 -21 9 -33 1 -123 -83 -55 -51
-101 -91 -103 -89 -2 2 13 57 32 123 20 65 36 124 36 130 0 6 -9 16 -19 22
-16 8 -21 6 -25 -8z"/>
<path d="M1503 4416 c-40 -19 -73 -38 -73 -41 0 -3 34 -73 75 -155 69 -138 77
-150 95 -140 11 6 20 13 20 16 0 2 -13 31 -30 63 l-29 59 30 12 c28 12 33 10
90 -34 55 -43 61 -45 84 -33 l25 13 -64 47 -65 48 16 27 c32 56 -7 135 -72
147 -22 4 -50 -4 -102 -29z m119 -33 c10 -9 18 -28 18 -43 0 -29 -18 -49 -66
-73 l-30 -16 -28 56 c-15 30 -26 57 -24 58 2 1 17 10 33 18 39 21 74 21 97 0z"/>
<path d="M1283 4293 c-22 -8 -15 -23 51 -112 35 -47 69 -97 76 -111 16 -37 -2
-76 -45 -97 -50 -24 -72 -10 -156 102 -69 92 -94 111 -105 81 -6 -17 135 -210
166 -226 49 -26 130 -4 169 46 24 30 28 96 8 130 -21 36 -141 194 -147 193 -3
0 -11 -3 -17 -6z"/>
<path d="M2355 4104 c-16 -2 -66 -9 -110 -15 -231 -31 -487 -136 -700 -287
-109 -78 -297 -267 -378 -382 -126 -179 -219 -396 -269 -623 -19 -88 -22 -132
-22 -322 0 -190 3 -234 22 -319 71 -319 215 -589 433 -816 254 -262 581 -428
949 -480 126 -18 439 -8 555 18 647 146 1132 635 1267 1280 20 92 23 137 22
322 0 184 -3 230 -22 317 -31 141 -74 269 -132 388 -222 462 -657 798 -1157
895 -104 20 -383 35 -458 24z m355 -44 c110 -17 238 -50 334 -84 552 -200 955
-696 1036 -1276 16 -109 16 -342 0 -445 -97 -655 -565 -1172 -1205 -1329 -346
-85 -699 -51 -1037 100 -433 194 -763 588 -883 1054 -52 202 -62 464 -26 671
97 555 488 1026 1012 1219 94 35 215 67 319 85 92 16 361 19 450 5z"/>
<path d="M2355 4004 c-16 -2 -66 -9 -110 -15 -79 -10 -252 -61 -350 -102 -168
-70 -376 -217 -510 -359 -208 -221 -344 -496 -396 -799 -18 -106 -21 -150 -16
-299 4 -121 12 -203 26 -267 119 -542 506 -971 1028 -1142 180 -59 299 -75
528 -68 205 6 265 16 430 71 380 128 706 409 886 767 49 98 111 278 135 394
30 140 27 463 -4 604 -67 298 -202 551 -406 757 -229 231 -521 388 -816 440
-83 14 -366 27 -425 18z m183 -1074 c8 -82 -28 -110 -47 -36 -17 67 -15 75 17
72 23 -3 28 -8 30 -36z m237 -40 c-3 -5 -14 -10 -23 -10 -15 0 -15 2 -2 10 20
13 33 13 25 0z m-500 -31 c5 -5 -4 -9 -23 -9 -22 0 -32 5 -32 16 0 11 6 14 23
9 12 -4 26 -11 32 -16z"/>
<path d="M3787 3999 c-134 -67 -157 -82 -147 -94 16 -19 41 -19 66 0 30 23 45
18 96 -32 l47 -46 -20 -40 c-18 -35 -19 -41 -6 -54 8 -9 19 -13 24 -10 5 4 40
78 77 167 55 131 66 163 56 175 -7 8 -18 15 -24 14 -6 0 -82 -36 -169 -80z
m111 -51 c-16 -40 -31 -74 -32 -75 -1 -2 -19 15 -40 36 l-39 39 69 36 c38 19
70 35 71 36 1 0 -12 -33 -29 -72z"/>
<path d="M954 4010 c-27 -11 -72 -65 -80 -95 -7 -27 18 -80 45 -95 32 -17 63
-12 129 21 70 34 98 32 113 -8 10 -27 2 -48 -30 -77 -19 -17 -44 -19 -89 -5
-8 2 -19 -4 -25 -14 -10 -14 -9 -20 3 -27 47 -31 96 -23 146 23 28 26 37 42
41 77 4 38 1 49 -20 72 -40 43 -67 44 -143 9 -72 -34 -94 -37 -112 -19 -19 19
-14 53 12 77 20 19 31 22 61 17 28 -6 37 -3 42 10 13 33 -44 54 -93 34z"/>
<path d="M4030 3770 c-73 -55 -135 -102 -138 -105 -4 -3 73 -113 114 -164 2
-2 10 2 19 9 13 11 11 18 -18 56 -17 25 -38 53 -45 63 -12 18 -3 27 107 111
108 81 120 93 111 110 -6 11 -12 20 -14 20 -1 0 -63 -45 -136 -100z"/>
<path d="M537 2874 l-36 -71 -70 -7 c-39 -4 -71 -10 -71 -13 0 -2 23 -30 50
-61 28 -31 48 -62 46 -68 -2 -6 -7 -37 -11 -69 -6 -48 -5 -57 6 -52 8 3 38 15
67 28 l53 22 66 -27 c36 -15 67 -25 69 -23 2 1 -2 33 -8 70 l-11 66 47 55 c25
30 46 56 46 59 0 3 -31 8 -68 12 l-68 7 -36 71 -35 72 -36 -71z"/>
<path d="M4474 2819 c-31 -66 -50 -79 -112 -79 -68 0 -70 -12 -15 -72 l51 -53
-10 -63 c-5 -35 -7 -66 -4 -69 3 -4 33 6 67 20 l61 26 64 -26 c35 -15 66 -25
68 -22 2 2 -1 35 -6 72 l-10 69 48 49 c26 27 46 51 43 53 -3 3 -34 9 -69 13
l-65 8 -35 67 c-19 38 -38 68 -41 68 -3 0 -18 -28 -35 -61z"/>
<path d="M608 1954 l-137 -105 11 -30 c6 -17 17 -33 24 -36 8 -3 59 0 115 7
55 7 102 10 105 8 2 -3 -36 -36 -85 -74 l-89 -69 16 -39 c13 -33 18 -37 41
-33 14 3 88 13 163 23 75 9 143 21 149 25 10 5 9 14 0 37 l-12 29 -107 -18
c-59 -11 -118 -22 -132 -25 -14 -3 20 28 83 76 59 45 107 84 107 86 0 12 -31
64 -38 64 -4 0 -50 -7 -102 -15 -154 -24 -154 -23 -44 56 55 39 101 73 103 75
5 5 -20 64 -28 64 -3 0 -68 -48 -143 -106z"/>
<path d="M4238 2005 c-15 -9 -34 -29 -43 -44 -26 -52 -57 -142 -50 -149 12
-13 310 -119 317 -113 4 3 9 18 13 32 6 24 2 27 -54 49 -34 12 -61 24 -61 27
0 2 5 13 10 24 8 15 21 19 60 19 67 0 96 13 108 50 l11 31 -77 -6 -77 -7 -11
30 c-21 55 -96 85 -146 57z m67 -67 c28 -12 33 -49 14 -92 -11 -24 -12 -24
-55 -9 -24 8 -44 19 -44 23 0 20 22 66 37 78 20 15 17 15 48 0z"/>
<path d="M4030 1617 c-30 -50 -56 -94 -58 -97 -3 -8 273 -180 288 -180 5 0 34
42 65 93 l55 92 -22 18 c-21 18 -22 18 -55 -35 -19 -29 -38 -60 -43 -68 -8
-13 -13 -13 -44 4 -20 11 -36 23 -36 27 0 5 14 31 30 57 35 58 37 68 10 82
-18 9 -23 5 -48 -36 -49 -82 -44 -79 -84 -53 l-35 23 38 63 c22 35 39 67 39
72 0 4 -10 12 -23 18 -20 10 -26 4 -77 -80z"/>
<path d="M870 1464 c-63 -47 -123 -91 -134 -99 -17 -13 -15 -18 44 -99 35 -48
67 -89 72 -92 5 -3 18 2 28 11 19 17 18 19 -25 75 -25 32 -45 62 -45 66 0 7
24 28 51 44 14 8 25 -1 59 -46 42 -55 55 -61 73 -32 8 11 0 28 -31 69 l-41 54
27 22 c15 12 32 22 38 23 6 0 30 -27 54 -60 36 -49 46 -58 61 -50 10 6 20 14
23 19 6 9 -120 181 -132 181 -4 0 -59 -39 -122 -86z"/>
<path d="M3880 1379 c-29 -12 -69 -48 -111 -101 l-29 -36 126 -117 c121 -111
127 -115 145 -99 27 24 24 33 -22 80 l-41 42 36 48 c58 75 46 149 -30 180 -38
16 -40 16 -74 3z m66 -84 c16 -24 15 -27 -11 -65 -15 -22 -31 -40 -34 -40 -4
0 -22 15 -40 34 l-34 35 31 30 c37 38 66 39 88 6z"/>
<path d="M1092 1162 l-113 -127 61 -58 c89 -83 136 -97 187 -53 22 19 28 32
28 65 0 36 2 41 21 41 36 0 54 11 70 42 24 46 10 79 -66 152 -37 36 -70 66
-72 66 -1 -1 -54 -58 -116 -128z m198 -38 c0 -17 -28 -44 -46 -44 -7 0 -28 13
-46 29 l-33 30 29 30 30 31 33 -32 c18 -18 33 -37 33 -44z m-130 -54 c35 -25
45 -52 30 -80 -15 -28 -49 -25 -90 10 l-35 29 29 30 c17 17 32 31 34 31 2 0
17 -9 32 -20z"/>
<path d="M3539 1087 c-107 -57 -128 -180 -46 -274 77 -88 201 -82 274 13 22
30 27 47 28 94 0 49 -5 65 -30 102 -60 84 -144 108 -226 65z m135 -68 c53 -42
71 -113 40 -158 -21 -29 -74 -52 -105 -44 -51 12 -99 77 -99 133 0 74 103 117
164 69z"/>
<path d="M1630 908 c-10 -24 -39 -90 -64 -148 -25 -57 -46 -110 -46 -116 0
-22 131 -69 192 -69 49 0 61 4 89 30 68 65 90 172 46 236 -15 23 -47 46 -97
71 -41 20 -81 37 -88 38 -7 0 -21 -19 -32 -42z m103 -54 c54 -28 67 -44 67
-86 0 -53 -32 -112 -69 -128 -25 -10 -38 -9 -80 5 -28 9 -51 18 -51 19 0 2 13
32 29 67 16 35 36 81 44 102 18 43 18 42 60 21z"/>
<path d="M3113 857 c-22 -12 -22 -12 43 -166 35 -85 66 -156 67 -158 8 -8 192
76 194 88 2 8 -1 20 -6 28 -8 12 -19 10 -71 -12 -34 -15 -65 -27 -69 -27 -4 0
-32 59 -61 130 -29 72 -58 130 -64 130 -6 -1 -21 -6 -33 -13z"/>
<path d="M1991 644 c-25 -122 -31 -168 -22 -173 6 -4 55 -16 107 -25 81 -16
98 -16 105 -5 22 35 16 39 -85 59 l-58 12 6 41 c4 23 8 43 10 44 2 2 33 -3 69
-11 37 -7 69 -11 72 -8 3 3 5 15 5 28 0 19 -8 24 -50 33 -28 6 -58 11 -67 11
-13 0 -15 8 -10 41 3 22 7 43 10 45 2 2 36 -3 76 -12 40 -9 74 -14 76 -12 3 2
6 15 7 28 3 23 -2 26 -77 42 -44 9 -94 19 -110 22 l-30 6 -34 -166z"/>
<path d="M2855 788 c-49 -11 -91 -21 -93 -23 -5 -4 60 -312 68 -325 5 -8 38
-5 113 11 98 21 107 24 107 45 0 13 -4 25 -9 28 -5 3 -41 -1 -80 -10 -40 -9
-73 -15 -75 -13 -2 2 -7 22 -10 45 l-7 41 68 14 c64 13 68 16 65 39 -2 14 -5
26 -6 28 -2 1 -34 -4 -72 -12 -38 -8 -69 -14 -70 -13 -1 1 -5 20 -8 42 l-7 41
73 15 c67 13 73 17 73 39 0 33 -17 34 -130 8z"/>
<path d="M2340 743 c0 -5 28 -84 62 -176 l61 -168 40 3 40 3 33 90 c17 50 46
127 62 173 l31 82 -37 0 -37 0 -47 -132 c-40 -117 -47 -130 -55 -108 -5 14
-27 73 -47 133 l-38 107 -34 0 c-19 0 -34 -3 -34 -7z"/>
</g>
</svg>
